<svg id="Telegram_alternative_logo" xmlns="http://www.w3.org/2000/svg" viewBox="0 0 35 35">
  <defs>
    <style>
      .cls-1 {
        fill: #2ca5e0;
      }

      .cls-2 {
        fill: #fff;
      }
    </style>
  </defs>
  <path id="path3019" class="cls-1" d="M39.243,21.171a17.5,17.5,0,1,1-17.5-17.5A17.5,17.5,0,0,1,39.243,21.171Z" transform="translate(-4.243 -3.671)"/>
  <path id="path3043" class="cls-2" d="M82.965,94.757c.538-1.471,2.51-7.067,2.826-8.535.358-1.659-.391-1.821-2.1-1.265s-6.074,2.176-6.809,2.437-4.316,1.465-5.059,1.824c-1.516.813-.779,2.055.916,2.7,5.066,2.432,3.628,1.193,5.89,5.693.465,1.15,1.563,3.108,2.614,1.628a32.853,32.853,0,0,0,1.716-4.48Z" transform="translate(-61.6 -73.259)"/>
</svg>
