<svg id="Group_751" data-name="Group 751" xmlns="http://www.w3.org/2000/svg" xmlns:xlink="http://www.w3.org/1999/xlink" viewBox="0 0 34.999 35">
  <defs>
    <style>
      .cls-1 {
        fill: url(#linear-gradient);
      }

      .cls-2 {
        fill: #fff;
        fill-rule: evenodd;
      }
    </style>
    <linearGradient id="linear-gradient" x1="0.5" y1="1" x2="0.5" gradientUnits="objectBoundingBox">
      <stop offset="0" stop-color="#20b038"/>
      <stop offset="1" stop-color="#60d66a"/>
    </linearGradient>
  </defs>
  <path id="Path_2" data-name="Path 2" class="cls-1" d="M27.875,56.078l2.472-8.987a17.442,17.442,0,1,1,15.1,8.686h-.008a17.483,17.483,0,0,1-8.327-2.111l-9.238,2.412Z" transform="translate(-27.875 -21.078)"/>
  <path id="Path_3" data-name="Path 3" class="cls-2" d="M311.95,323.814c-.338-.748-.694-.763-1.015-.776-.263-.011-.564-.011-.864-.011a1.66,1.66,0,0,0-1.2.562,5.024,5.024,0,0,0-1.579,3.745,8.715,8.715,0,0,0,1.842,4.644c.226.3,3.12,4.978,7.7,6.778,3.81,1.5,4.586,1.2,5.413,1.123a4.555,4.555,0,0,0,3.044-2.135,3.734,3.734,0,0,0,.263-2.135c-.113-.187-.413-.3-.865-.524s-2.669-1.311-3.082-1.461-.714-.225-1.015.225-1.165,1.46-1.428,1.76-.526.338-.977.113a12.353,12.353,0,0,1-3.627-2.229,13.534,13.534,0,0,1-2.509-3.109c-.263-.449-.028-.692.2-.916.2-.2.451-.524.677-.786a3.077,3.077,0,0,0,.451-.749.823.823,0,0,0-.038-.787C313.228,326.922,312.351,324.7,311.95,323.814Z" transform="translate(-298.886 -313.987)"/>
</svg>
